<?xml version="1.0" encoding="UTF-8" standalone="no"?>
<!-- Created with Inkscape (http://www.inkscape.org/) -->

<svg
   width="94.738991mm"
   height="53.444752mm"
   viewBox="0 0 94.738991 53.444752"
   version="1.1"
   id="svg451"
   inkscape:version="1.2.2 (b0a84865, 2022-12-01)"
   sodipodi:docname="drawing.svg"
   xml:space="preserve"
   xmlns:inkscape="http://www.inkscape.org/namespaces/inkscape"
   xmlns:sodipodi="http://sodipodi.sourceforge.net/DTD/sodipodi-0.dtd"
   xmlns="http://www.w3.org/2000/svg"
   xmlns:svg="http://www.w3.org/2000/svg"><sodipodi:namedview
     id="namedview453"
     pagecolor="#ffffff"
     bordercolor="#000000"
     borderopacity="0.25"
     inkscape:showpageshadow="2"
     inkscape:pageopacity="0.0"
     inkscape:pagecheckerboard="0"
     inkscape:deskcolor="#d1d1d1"
     inkscape:document-units="mm"
     showgrid="false"
     inkscape:zoom="1.3734594"
     inkscape:cx="474.34965"
     inkscape:cy="161.99969"
     inkscape:window-width="2560"
     inkscape:window-height="1387"
     inkscape:window-x="1800"
     inkscape:window-y="25"
     inkscape:window-maximized="1"
     inkscape:current-layer="layer1" /><defs
     id="defs448"><rect
       x="100.08794"
       y="40.499042"
       width="3.2113778"
       height="19.803497"
       id="rect1202" /></defs><g
     inkscape:label="Layer 1"
     inkscape:groupmode="layer"
     id="layer1"
     transform="translate(-25.219557,-39.361136)"
     style="display:inline"><path
       id="path1"
       d="m 88.277227,39.562457 c -3.962929,0.45931 -8.231452,2.86305 -12.294659,6.92361 -1.526116,1.52533 -3.640666,4.26932 -3.886464,5.04376 -0.102394,0.32332 -0.161396,0.27993 -0.762265,-0.56066 -0.309298,-0.43312 -0.600604,-0.74374 -0.661987,-0.7059 -0.06403,0.0397 -0.07858,0.0182 -0.03545,-0.0519 0.194998,-0.31539 -3.308615,-3.94891 -5.039784,-5.22685 -2.650331,-1.95633 -7.355152,-4.18147 -7.83246,-3.70416 -0.09551,0.0955 -0.09022,0.13361 0.02328,0.16933 0.08043,0.0254 0.541867,0.16854 1.024996,0.31803 0.964936,0.29845 3.887523,1.71979 4.134115,2.0103 0.0852,0.10055 0.410633,0.33655 0.722841,0.52414 0.983986,0.59161 2.077509,1.48405 3.373438,2.75299 1.803135,1.7661 3.104356,3.42556 2.243137,2.86147 -0.251354,-0.16457 -0.242623,-0.13758 0.100807,0.31221 1.548077,2.0283 3.098535,4.90352 2.964391,5.49831 -0.118268,0.5244 -0.02275,0.77337 0.323586,0.84269 0.331523,0.0661 0.570177,0.67866 1.079235,2.77231 0.138113,0.56859 0.32041,1.24275 0.404813,1.4986 0.175154,0.53128 0.360362,2.03015 0.364066,2.9456 0.0024,0.64532 0.18124,1.17793 0.225161,0.67178 0.01243,-0.14208 0.04815,0.32306 0.07911,1.03346 l 0.05662,1.29196 0.151871,-0.93001 c 0.417512,-2.55905 -0.02672,-6.6077 -0.997744,-9.09187 -0.200554,-0.51356 -0.473075,-1.23217 -0.605631,-1.59703 l -0.241036,-0.66357 0.519113,-1.04193 c 1.040606,-2.08915 2.484966,-4.01056 4.3942,-5.84597 0.672835,-0.64691 1.223433,-1.2102 1.223433,-1.25201 0,-0.0418 0.04233,-0.11456 0.09419,-0.16192 0.0545,-0.05 0.06271,-0.032 0.01958,0.0429 -0.125148,0.21775 -0.0019,0.15134 0.835819,-0.45032 8.993187,-6.45875 23.022981,-5.16917 31.306291,2.87734 0.68739,0.66781 1.28773,1.17978 1.3343,1.13771 0.0463,-0.0421 0.0524,-0.0209 0.0135,0.0471 -0.0408,0.0712 0.22198,0.48577 0.62256,0.9816 5.60017,6.93446 6.19972,16.72669 1.58697,25.91885 -0.45164,0.89985 -0.50932,1.07897 -0.39449,1.22608 0.11853,0.15134 0.1143,0.1561 -0.0347,0.0397 -0.1479,-0.11562 -0.21167,-0.0569 -0.50483,0.46514 -2.22012,3.95102 -6.05552,7.60862 -10.0965,9.62872 -7.921357,3.96028 -18.995757,2.80908 -26.395095,-2.74373 -0.631031,-0.47361 -1.196446,-0.83079 -1.256241,-0.79375 -0.06032,0.0373 -0.07858,0.0185 -0.04101,-0.0423 0.03731,-0.0606 -0.281516,-0.42254 -0.708554,-0.80487 -2.080154,-1.86187 -4.2291,-4.80536 -3.928533,-5.38162 0.407723,-0.78185 -0.275431,-0.79481 -0.776817,-0.0148 -2.400829,3.73512 -5.986462,7.09031 -9.262798,8.66775 -0.502708,0.24183 -0.932391,0.48683 -0.954881,0.54425 -0.127529,0.32358 -0.528108,0.55748 -1.071562,0.62521 -0.329671,0.0413 -0.69559,0.16219 -0.843757,0.27861 -0.697441,0.54874 -4.215606,1.41287 -5.898356,1.44885 -4.182798,0.0897 -5.927196,-0.17197 -10.490464,-1.57453 -2.079625,-0.63923 -6.65189,-3.35439 -7.793302,-4.62809 -0.198173,-0.22146 -0.438679,-0.30877 -0.319882,-0.11642 0.03519,0.0569 0.01085,0.10319 -0.05424,0.10319 -0.06482,0 -0.09737,-0.058 -0.07223,-0.12912 0.02513,-0.0709 -0.354543,-0.54769 -0.844023,-1.05939 -6.87784,-7.18979 -9.01991,-16.68833 -5.85919,-25.98261 0.99959,-2.93952 3.25173,-6.74423 4.95855,-8.37671 0.37756,-0.36089 0.5379,-0.70379 0.17622,-0.3765 -0.12859,0.11641 -0.22014,0.1397 -0.26459,0.0677 -0.0376,-0.0606 -0.0421,-0.11589 -0.0103,-0.12303 0.15981,-0.0357 0.26961,-0.0672 0.31618,-0.0905 0.0283,-0.014 0.1098,-0.0336 0.18098,-0.0434 0.0709,-0.01 0.11641,-0.077 0.1008,-0.14975 -0.0156,-0.0728 0.0138,-0.1061 0.0656,-0.0741 0.0519,0.032 0.36803,-0.18547 0.70273,-0.48313 0.835288,-0.74348 1.308363,-1.10966 2.368549,-1.83303 0.500062,-0.34131 0.863335,-0.62045 0.807244,-0.62045 -0.05609,0 -0.157957,0.0558 -0.226219,0.12409 -0.08811,0.0881 -0.123825,0.0902 -0.123825,0.007 0,-0.12462 0.400579,-0.43444 0.826823,-0.63923 0.254,-0.12224 0.253735,-0.12012 -0.02593,0.1352 -0.401902,0.36724 -0.353219,0.43603 0.07646,0.10848 0.198438,-0.15134 0.337079,-0.31327 0.308504,-0.35983 -0.02884,-0.0466 0.0019,-0.11854 0.06853,-0.15955 0.07567,-0.0468 0.0934,-0.0302 0.04736,0.0444 -0.117211,0.18944 2.64e-4,0.14341 0.582612,-0.22939 1.865048,-1.19301 5.202238,-2.37622 7.908131,-2.80406 0.241565,-0.0381 0.439209,-0.10742 0.439209,-0.15372 0,-0.11483 -1.157817,-0.013 -1.875102,0.16484 -0.776552,0.19235 -1.057804,0.18891 -0.980811,-0.0119 0.06615,-0.17251 -0.0034,-0.16431 -1.114425,0.13309 -0.470164,0.12567 -0.565679,0.1815 -0.413543,0.2413 0.172243,0.0675 0.16457,0.0786 -0.06006,0.0863 -1.705239,0.0579 -8.085137,3.51658 -7.684029,4.1656 0.03916,0.0635 0.01879,0.0794 -0.04895,0.0376 -0.106891,-0.0662 -1.775088,1.50839 -1.775888,1.67614 -2.6e-4,0.0381 -0.3855,0.48789 -0.85645,0.99933 -1.06971,1.16205 -2.14048,2.47888 -2.14048,2.63207 0,0.064 -0.28152,0.585 -0.62548,1.15782 -0.79269,1.31948 -1.51262,2.75828 -2.00845,4.01346 -0.21352,0.54002 -0.46382,1.07104 -0.55668,1.18031 -0.11801,0.13917 -0.12436,0.17277 -0.0217,0.11245 0.11007,-0.0648 0.13018,-0.0429 0.0799,0.0878 -1.20279,3.13425 -1.92616,10.28038 -1.27926,12.63862 0.0958,0.34925 0.17384,0.76782 0.17357,0.93001 -5.3e-4,0.3249 0.31168,1.27714 0.41884,1.27714 0.10292,0 -0.0942,-1.11019 -0.27252,-1.53538 -0.0889,-0.21219 -0.13309,-0.51223 -0.10081,-0.68686 0.0328,-0.17859 -0.006,-0.43153 -0.0929,-0.59742 -0.1487,-0.28523 -0.118,-0.59108 0.059,-0.59108 0.0508,0 0.0923,0.10318 0.0923,0.22913 0,0.12594 0.0662,0.41671 0.14711,0.64584 0.0807,0.2294 0.36433,1.16099 0.62997,2.07063 2.10053,7.19085 6.53283,13.02703 12.020292,15.82711 0.474397,0.2421 0.916781,0.48234 0.983191,0.53367 0.855133,0.66463 4.961996,2.00713 7.355152,2.40453 0.397933,0.0659 0.767556,0.16113 0.821531,0.21167 0.05397,0.0503 0.356394,0.0918 0.671777,0.0923 1.078971,0.001 2.274888,0.12911 2.208478,0.23627 -0.183092,0.29633 -3.937265,-0.13705 -6.389159,-0.73739 -2.461948,-0.60325 -5.995458,-2.21615 -7.698052,-3.5142 -0.197908,-0.15108 -0.546893,-0.39423 -0.774964,-0.54081 -0.228336,-0.14631 -0.740834,-0.55271 -1.138767,-0.90302 -0.397939,-0.35031 -0.783959,-0.61463 -0.858049,-0.58764 -0.0738,0.027 -0.11112,0.0114 -0.0825,-0.0347 0.0624,-0.10107 -1.62957,-1.80499 -1.71132,-1.72323 -0.0315,0.0317 -0.12224,-0.0251 -0.20135,-0.12594 -0.1307,-0.16669 -0.12753,-0.1704 0.037,-0.0415 0.0995,0.078 0.18071,0.0997 0.18071,0.0481 0,-0.13414 -1.08558,-1.18851 -1.15385,-1.12025 -0.0312,0.0312 -0.1217,-0.0257 -0.20082,-0.12647 -0.1307,-0.16668 -0.12752,-0.17065 0.037,-0.0415 0.29342,0.23019 0.21378,0.0714 -0.37995,-0.75591 -0.3085,-0.42995 -0.80036,-1.20015 -1.09299,-1.71159 -0.29263,-0.51144 -0.57441,-0.93001 -0.62574,-0.93001 -0.0516,0 -0.12356,-0.12779 -0.16034,-0.28416 -0.0638,-0.27252 -0.36274,-1.02209 -0.93768,-2.35135 -0.37095,-0.85725 -0.40137,-0.93822 -0.66119,-1.7571 -0.20532,-0.64691 -0.37836,-0.94007 -0.48948,-0.82868 -0.0429,0.0426 0.16166,0.80434 0.56435,2.1037 0.45324,1.46183 2.58128,5.49143 2.82179,5.343 0.0519,-0.032 0.12779,-0.004 0.16906,0.0627 0.0466,0.0754 0.0299,0.0931 -0.0444,0.0471 -0.18044,-0.11139 -0.14393,0.0273 0.0952,0.36301 0.11801,0.16589 0.25427,0.27675 0.30295,0.24686 0.0484,-0.0299 0.12197,0 0.16299,0.0664 0.0468,0.0757 0.0299,0.0934 -0.0444,0.0474 -0.20585,-0.12727 -0.13124,0.0389 0.20558,0.45826 0.17859,0.22225 0.35851,0.38338 0.39952,0.35798 0.041,-0.0254 0.16219,0.0574 0.26934,0.18388 l 0.19474,0.23019 -0.23257,-0.19685 c -0.85328,-0.72258 0.97446,1.4052 1.98279,2.30849 0.34475,0.3085 0.82973,0.76359 1.07764,1.01097 0.247656,0.24712 0.596642,0.52388 0.774971,0.61437 0.178593,0.0908 0.632089,0.41486 1.007798,0.72046 0.375973,0.30532 0.719666,0.55509 0.763852,0.55509 0.04418,0 0.303477,0.13732 0.576527,0.30533 3.989387,2.4548 8.115035,3.59198 13.117512,3.6158 1.004623,0.005 2.13704,-0.1524 1.447006,-0.20082 -0.183885,-0.0127 -0.109273,-0.0595 0.258498,-0.16219 0.284163,-0.0794 0.577321,-0.12224 0.651669,-0.0953 0.07435,0.027 0.553773,-0.023 1.065477,-0.11139 0.511704,-0.0884 0.985838,-0.13811 1.053571,-0.1106 0.06773,0.0275 0.04154,0.0537 -0.05794,0.0582 -0.09948,0.005 -0.18071,0.0434 -0.18071,0.0865 0,0.0431 0.209285,0.0617 0.465137,0.0413 0.255588,-0.0204 0.465138,-0.0796 0.465138,-0.13202 -2.65e-4,-0.0521 -0.116417,-0.0656 -0.258498,-0.0299 -0.146315,0.0368 -0.258498,0.0201 -0.258498,-0.0384 0,-0.0566 0.174625,-0.13521 0.387614,-0.17463 0.213255,-0.0394 0.52705,-0.13732 0.697707,-0.21749 0.309033,-0.14525 1.317889,-0.44026 1.808691,-0.5289 0.635,-0.11483 3.556265,-1.33985 3.909748,-1.63962 0.403225,-0.34184 0.92419,-0.56251 1.327415,-0.56251 0.162983,0 0.276754,-0.082 0.338402,-0.24421 0.05106,-0.13441 0.169333,-0.27358 0.262467,-0.30956 0.09313,-0.0357 0.14261,-0.10848 0.109537,-0.16192 -0.03281,-0.0532 -0.0053,-0.13044 0.06112,-0.17172 0.07567,-0.0466 0.0934,-0.0299 0.04736,0.0447 -0.109273,0.17674 -0.0069,0.14499 0.265377,-0.082 0.132821,-0.11059 0.955146,-0.7702 1.827477,-1.46579 1.562629,-1.24618 3.573727,-3.24432 3.994944,-3.96954 0.255588,-0.44 0.283898,-0.4408 0.487363,-0.0143 0.416189,0.87286 2.79691,3.74544 3.00011,3.62003 0.06059,-0.0376 0.0807,-0.0204 0.04445,0.0381 -0.08731,0.14155 1.55231,1.71318 2.589212,2.48206 11.610446,8.60874 27.377231,7.20778 35.731181,-3.175 11.4554,-14.23723 10.4775,-31.00864 -2.31986,-39.78434 -5.23029,-3.58696 -14.031121,-5.4991 -21.384685,-4.64661 m 2.718064,0.0722 c 0.02884,0.0466 -0.08467,0.0646 -0.252412,0.04 -0.167482,-0.0246 -0.304536,-0.0624 -0.304536,-0.0847 0,-0.0786 0.505619,-0.0381 0.556948,0.0447 m -1.79705,0.12435 c 0.115888,0.0765 0.06853,0.0963 -0.188912,0.0791 -0.188913,-0.0127 -0.366184,-0.0595 -0.3937,-0.10398 -0.07197,-0.11641 0.398727,-0.0963 0.582612,0.0249 m 6.045994,-0.002 c -0.170392,0.0434 -0.426244,0.0788 -0.568325,0.0788 -0.230452,0 -0.224896,-0.008 0.05159,-0.0788 0.170656,-0.0434 0.426243,-0.0788 0.568589,-0.0788 0.230452,0 0.224896,0.008 -0.05186,0.0788 m -45.578447,0.10213 c 0.113506,0.0495 0.145785,0.0931 0.07117,0.0974 -0.07435,0.004 -0.112183,0.0442 -0.0844,0.0894 0.02805,0.045 0.391055,0.0497 0.80698,0.0103 0.416189,-0.0397 0.895879,-0.0471 1.066535,-0.0169 0.207433,0.0368 0.275696,0.0206 0.20664,-0.0487 -0.05689,-0.0571 -0.591609,-0.13044 -1.188509,-0.16272 -0.651404,-0.0352 -1.002506,-0.0228 -0.878416,0.0312 m 44.648436,0.10742 c 9.831124,0.5842 16.991274,4.3561 21.623864,11.3911 5.10726,7.756 4.63074,18.58672 -1.22978,27.94291 -0.43365,0.69242 -0.49054,0.86387 -0.21458,0.64744 0.16378,-0.12832 0.16748,-0.12462 0.0399,0.0378 -0.0775,0.099 -0.177,0.15743 -0.22119,0.13018 -0.0442,-0.0272 -0.15531,0.0646 -0.24659,0.20426 -0.19976,0.30453 -0.21167,0.40269 -0.0373,0.30215 0.0751,-0.0431 0.0931,-0.0349 0.0431,0.0198 -0.0474,0.0519 -0.12488,0.0942 -0.17225,0.0942 -0.0474,0 -0.49953,0.558 -1.00515,1.2401 -2.5101,3.38746 -4.16375,4.98713 -6.91541,6.68919 -11.292419,6.985 -27.323258,3.50944 -34.719156,-7.52739 -0.642144,-0.95832 -0.641085,-0.95435 -0.329142,-1.43563 0.30533,-0.47175 0.257175,-0.50112 0.976313,0.59425 5.815277,8.86011 19.135725,13.13683 29.693655,9.53347 7.45702,-2.54529 13.01803,-8.52249 15.87103,-17.0598 4.38944,-13.13418 -1.89468,-25.93684 -14.83756,-30.22865 -7.63244,-2.531 -15.876592,-1.74069 -21.810932,2.09074 -1.892564,1.22184 -5.160697,4.22354 -5.014118,4.6056 0.0299,0.0775 0.01349,0.11589 -0.03625,0.0852 -0.189442,-0.11721 -1.7653,2.12354 -2.457715,3.49461 -0.395816,0.78343 -0.408516,0.78264 -0.785018,-0.0569 l -0.263261,-0.58632 0.447411,-0.76438 c 2.447131,-4.18042 8.030897,-8.98975 12.251002,-10.55238 2.28256,-0.84508 5.295106,-1.13241 9.349051,-0.89164 m -46.664032,0.30718 c 0,0.0569 0.06985,0.10345 0.155046,0.10345 0.08546,0 0.155045,-0.0466 0.155045,-0.10345 0,-0.0569 -0.06959,-0.10345 -0.155045,-0.10345 -0.0852,0 -0.155046,0.0466 -0.155046,0.10345 m 7.183173,0.10345 c 0.284427,0.12224 0.385497,0.12224 0.310091,0 -0.03519,-0.0569 -0.165894,-0.10028 -0.290512,-0.0963 -0.218282,0.007 -0.218811,0.0106 -0.01958,0.0963 m 1.188508,0.20664 c 0.200289,0.12938 0.310092,0.12938 0.310092,0 0,-0.0569 -0.104775,-0.10266 -0.232569,-0.10187 -0.188119,10e-4 -0.202936,0.0209 -0.07752,0.10187 m -12.35075,0.20664 c -0.113506,0.049 -0.27649,0.0889 -0.361685,0.0889 -0.09763,0 -0.07858,-0.0328 0.05159,-0.0889 0.113771,-0.049 0.27649,-0.0889 0.36195,-0.0889 0.09763,0 0.07858,0.0328 -0.05186,0.0889 m 50.565579,0.48974 c -0.327025,0.0206 -0.861748,0.0206 -1.188773,0 -0.326761,-0.0204 -0.05927,-0.0373 0.594518,-0.0373 0.653521,0 0.921015,0.0169 0.594255,0.0373 m -51.737419,0.14208 c -0.13282,0.0505 -0.308239,0.0545 -0.389466,0.009 -0.09631,-0.054 -0.01164,-0.086 0.241564,-0.0918 0.334963,-0.008 0.355865,0.004 0.147902,0.0828 m 12.954265,0.0915 c 0.287073,0.12356 0.489479,0.12356 0.413279,0 -0.03519,-0.0566 -0.188912,-0.10001 -0.342106,-0.096 -0.248179,0.007 -0.255852,0.0169 -0.07117,0.096 m -21.795839,4.07935 c -0.0945,0.14393 -0.12568,0.26167 -0.0693,0.26167 0.11456,0 0.35824,-0.40561 0.28654,-0.47731 -0.0251,-0.0254 -0.12303,0.0717 -0.21722,0.21564 m -0.53922,0.5535 c -0.4408,0.36857 -0.5334,0.70909 -0.10346,0.38127 0.20479,-0.15637 0.37254,-0.34846 0.37254,-0.42704 0,-0.17701 -0.003,-0.17648 -0.26908,0.0458 m 32.618619,0.2249 c 0.06085,0.11351 0.162719,0.20664 0.226219,0.20664 0.06376,0 0.03175,-0.0931 -0.07117,-0.20664 -0.102923,-0.11377 -0.204787,-0.20664 -0.226483,-0.20664 -0.0217,0 0.01058,0.0929 0.07144,0.20664 m 0.6985,0.58341 c 0.126471,0.17859 0.591079,0.65854 1.031875,1.066 0.441061,0.40746 0.872596,0.86096 0.959115,1.00754 0.08625,0.14631 0.272521,0.33893 0.413279,0.42783 l 0.256117,0.16139 -0.258234,-0.30321 c -0.508529,-0.59611 -2.627841,-2.67811 -2.402152,-2.35955 m -34.649575,1.68963 c -0.0349,0.0566 -0.16562,0.1524 -0.29051,0.21272 -0.21484,0.10398 -0.21378,0.0984 0.0172,-0.10292 0.26353,-0.2294 0.37491,-0.27411 0.27331,-0.1098 m 39.582202,2.73182 c 0.256646,0.35983 0.466725,0.68315 0.466725,0.71834 0,0.16537 -0.176741,0.0286 -0.391319,-0.30242 -0.137054,-0.21193 -0.284427,-0.33443 -0.351631,-0.29289 -0.07091,0.0439 -0.08705,0.0249 -0.04154,-0.0487 0.04101,-0.0661 -0.0217,-0.24236 -0.139171,-0.39159 -0.223309,-0.28416 -0.28575,-0.5072 -0.111654,-0.39952 0.05609,0.0347 0.311943,0.35719 0.568589,0.71676 m 1.184011,1.98437 c 0.311679,0.52838 0.210343,0.66649 -0.12118,0.16537 -0.150812,-0.22781 -0.245797,-0.44265 -0.211137,-0.47705 0.09313,-0.0934 0.0934,-0.0931 0.332317,0.31168 m -44.256322,0.92128 c -0.12277,0.23363 -0.15822,0.25162 -0.21379,0.10689 -0.0365,-0.0952 -0.0238,-0.1471 0.0283,-0.11483 0.0521,0.0323 0.12542,-0.0386 0.16325,-0.15742 0.0376,-0.1188 0.091,-0.19341 0.1188,-0.16563 0.0278,0.0275 -0.0159,0.17648 -0.0966,0.33099 m 45.455149,2.58128 c 0.100277,0.37015 0.154781,0.70088 0.120914,0.73448 -0.0336,0.0339 -0.139964,-0.21114 -0.236273,-0.54398 -0.09631,-0.33311 -0.197114,-0.66358 -0.223837,-0.73475 -0.02699,-0.0709 -0.0026,-0.12912 0.05397,-0.12912 0.05662,0 0.184944,0.30295 0.285221,0.67337 m 45.961551,4.8562 c -0.0272,0.14208 -0.0672,0.25823 -0.0892,0.25823 -0.0217,0 -0.0397,-0.11615 -0.0397,-0.25823 0,-0.14235 0.0402,-0.2585 0.0892,-0.2585 0.049,0 0.0667,0.11615 0.0397,0.2585 m 0.15429,2.45454 c -0.0209,0.29845 -0.0381,0.0542 -0.0381,-0.54266 0,-0.5969 0.0172,-0.84111 0.0381,-0.54266 0.0209,0.29845 0.0209,0.78687 0,1.08532 m -45.167283,-0.77655 c -0.02381,0.15716 -0.04392,0.0532 -0.04471,-0.23125 -7.93e-4,-0.28416 0.01879,-0.41275 0.04313,-0.28548 0.02461,0.127 0.0254,0.35956 0.0016,0.51673 m 44.029573,1.03267 c -0.0225,0.21431 -0.041,0.0643 -0.0415,-0.33364 -5.3e-4,-0.39794 0.0177,-0.57336 0.0408,-0.39 0.0228,0.18362 0.023,0.50906 8e-4,0.72364 m -44.138324,2.99085 c -0.103187,0.10318 -0.0799,0.68421 0.03466,0.86121 0.07699,0.11933 0.100806,0.0836 0.102922,-0.15504 0.0019,-0.17039 0.03122,-0.4146 0.06535,-0.5424 0.05927,-0.22092 -0.05424,-0.31247 -0.202936,-0.16377 m -0.361685,0.41539 c -0.148961,0.27834 -0.15584,0.6186 -0.01455,0.70591 0.05821,0.036 0.0971,0.027 0.08625,-0.0198 -0.01058,-0.0468 0.01588,-0.21114 0.05927,-0.36486 0.110067,-0.39106 0.02196,-0.60696 -0.130968,-0.32121 m -47.957854,1.80393 c -0.0548,0.19103 -0.10398,0.26961 -0.109,0.17489 -0.005,-0.0947 -0.037,-0.2577 -0.0709,-0.36169 -0.0511,-0.15742 -0.0426,-0.16324 0.0503,-0.0344 0.0947,0.13203 0.11165,0.12568 0.11298,-0.0431 7.9e-4,-0.10874 0.0275,-0.17198 0.0593,-0.14049 0.0315,0.0318 0.0124,0.21378 -0.0426,0.40481 m 1.60358,7.14117 c 0.0791,0.15637 0.12039,0.28416 0.0918,0.28416 -0.081,0 -0.36777,-0.59478 -0.35877,-0.744 0.006,-0.0902 0.027,-0.0836 0.0659,0.0206 0.0318,0.0852 0.12224,0.28284 0.20108,0.43921 m 3.16865,3.15622 0.39476,0.59028 -0.47228,-0.50085 c -0.25982,-0.27544 -0.47228,-0.54293 -0.47228,-0.59426 0,-0.21458 0.17806,-0.0508 0.5498,0.50483 m 25.805084,10.27139 c -0.198967,0.0561 -0.408252,0.15002 -0.465138,0.20875 -0.07064,0.0733 -0.02196,0.0828 0.155046,0.0299 0.452173,-0.13494 0.723636,-0.2495 0.723636,-0.30533 0,-0.0299 -0.01164,-0.05 -0.02593,-0.045 -0.01429,0.005 -0.188648,0.0553 -0.387614,0.11166 m -7.414154,0.26193 c -0.127,0.0246 -0.359569,0.0251 -0.516732,10e-4 -0.157162,-0.0236 -0.05318,-0.0437 0.230982,-0.0444 0.284427,-8e-4 0.41275,0.0185 0.28575,0.0431 m 47.79936,-0.002 c -0.09948,0.0262 -0.262203,0.0262 -0.361686,0 -0.09948,-0.0259 -0.01826,-0.0471 0.180711,-0.0471 0.198966,0 0.280458,0.0212 0.180975,0.0471 m -43.124173,0.34237 c -0.199231,0.0855 -0.198437,0.0889 0.01984,0.096 0.124619,0.004 0.255323,-0.0394 0.290248,-0.096 0.07567,-0.1225 -0.0254,-0.1225 -0.310092,0 m -1.085056,0.0762 c -0.255852,0.022 -0.511704,0.0865 -0.56859,0.1434 -0.122766,0.1225 0.946679,0.009 1.188773,-0.12673 0.137584,-0.077 0.137584,-0.0849 0,-0.0717 -0.08546,0.008 -0.364331,0.0328 -0.620183,0.055 m 42.813816,-0.003 c -0.127794,0.0246 -0.337079,0.0246 -0.465137,0 -0.127794,-0.0246 -0.02302,-0.0447 0.232568,-0.0447 0.255852,0 0.360627,0.0201 0.232569,0.0447 m -1.96215,0.10319 c -0.127265,0.0246 -0.359833,0.0251 -0.516731,10e-4 -0.157163,-0.0236 -0.05318,-0.0437 0.230981,-0.0444 0.284163,-8e-4 0.41275,0.0185 0.28575,0.0431 m 1.109663,1.47796 c 0.106362,0.0691 0.0093,0.081 -0.310092,0.0386 -0.255852,-0.0339 -0.484452,-0.0799 -0.508265,-0.10213 -0.09578,-0.0894 0.674423,-0.0299 0.818357,0.0635"
       stroke="none"
       fill="#4f685e"
       fill-rule="evenodd"
       style="stroke-width:0.264583;fill:#1a1a1a"
       sodipodi:nodetypes="cccccccscccccccscccccccccccccsccccccccccccccccccccccccccscccccccccccccscsccccccccscscccccccscccccssscccsscccccccccccscccccsscccsscccccccccccccsccccsccscccccsscssccsccccssccccccccccccccccsccccccscsccccccscccccccccccscsccccccccccccccccsssccccccscccscscccsccccccccccsccccsccscscccccccccccccsccccscccccccccccccccsccsssccssccsccccccccccccccccccccccccscsccccsccccsscccccccsccccccccccccscccccccsc"
       inkscape:export-filename="../../path1.png"
       inkscape:export-xdpi="96"
       inkscape:export-ydpi="96" /><circle
       id="path1092"
       style="fill:#ff0000;stroke:#000000;stroke-width:0.264583"
       cx="44.526108"
       cy="54.183281"
       r="0.0062875641" /><text
       xml:space="preserve"
       style="font-size:3.175px;fill:#091c83;fill-opacity:1;stroke-width:0.264583"
       x="26.834606"
       y="63.989422"
       id="text1148"><tspan
         sodipodi:role="line"
         id="tspan1146"
         style="font-style:normal;font-variant:normal;font-weight:normal;font-stretch:normal;font-size:9.525px;font-family:sans-serif;-inkscape-font-specification:'sans-serif, Normal';font-variant-ligatures:normal;font-variant-caps:normal;font-variant-numeric:normal;font-variant-east-asian:normal;fill:#091c83;fill-opacity:1;stroke-width:0.264583"
         x="26.834606"
         y="63.989422">CÁTEDRA</tspan></text><text
       xml:space="preserve"
       transform="matrix(0.26458333,0,0,0.26458333,25.219557,39.361136)"
       id="text1200"
       style="white-space:pre;shape-inside:url(#rect1202);display:inline;fill:#ff0000" /><rect
       style="fill:#ffd200;fill-opacity:1;stroke-width:0.264583"
       id="rect4005"
       width="34.979664"
       height="10.144582"
       x="78.4692"
       y="54.744263"
       rx="0"
       ry="0" /><text
       xml:space="preserve"
       style="font-size:3.175px;display:inline;fill:#009641;fill-opacity:1;stroke-width:0.264583"
       x="81.245979"
       y="63.634563"
       id="text1148-3"><tspan
         sodipodi:role="line"
         id="tspan1146-8"
         style="font-style:normal;font-variant:normal;font-weight:bold;font-stretch:normal;font-size:9.525px;font-family:sans-serif;-inkscape-font-specification:'sans-serif, Bold';font-variant-ligatures:normal;font-variant-caps:normal;font-variant-numeric:normal;font-variant-east-asian:normal;fill:#009641;fill-opacity:1;stroke-width:0.264583"
         x="81.245979"
         y="63.634563">ONCE</tspan></text><text
       xml:space="preserve"
       style="font-style:normal;font-variant:normal;font-weight:normal;font-stretch:normal;font-size:9.525px;font-family:sans-serif;-inkscape-font-specification:'sans-serif, Normal';font-variant-ligatures:normal;font-variant-caps:normal;font-variant-numeric:normal;font-variant-east-asian:normal;display:inline;fill:#425056;fill-opacity:1;stroke-width:0.264583"
       x="42.564411"
       y="76.370621"
       id="text1148-3-5"><tspan
         sodipodi:role="line"
         id="tspan1146-8-0"
         style="font-style:normal;font-variant:normal;font-weight:normal;font-stretch:normal;font-size:8.46667px;font-family:sans-serif;-inkscape-font-specification:'sans-serif, Normal';font-variant-ligatures:normal;font-variant-caps:normal;font-variant-numeric:normal;font-variant-east-asian:normal;fill:#425056;fill-opacity:1;stroke-width:0.264583"
         x="42.564411"
         y="76.370621">Tiflotecnología</tspan></text></g></svg>
