<?xml version="1.0" encoding="UTF-8" standalone="no"?>
<svg
   version="1.1"
   width="1077.166"
   height="1057.2732"
   id="svg20506"
   inkscape:version="1.2.2 (b0a84865, 2022-12-01)"
   viewBox="0 0 1077.166 1057.2732"
   sodipodi:docname="escudoFdIvectorizadoColorLimpio.svg"
   xmlns:inkscape="http://www.inkscape.org/namespaces/inkscape"
   xmlns:sodipodi="http://sodipodi.sourceforge.net/DTD/sodipodi-0.dtd"
   xmlns="http://www.w3.org/2000/svg"
   xmlns:svg="http://www.w3.org/2000/svg"
   xmlns:rdf="http://www.w3.org/1999/02/22-rdf-syntax-ns#"
   xmlns:cc="http://creativecommons.org/ns#"
   xmlns:dc="http://purl.org/dc/elements/1.1/">
  <metadata
     id="metadata20542">
    <rdf:RDF>
      <cc:Work
         rdf:about="">
        <dc:format>image/svg+xml</dc:format>
        <dc:type
           rdf:resource="http://purl.org/dc/dcmitype/StillImage" />
        <dc:title />
      </cc:Work>
    </rdf:RDF>
  </metadata>
  <defs
     id="defs20540" />
  <sodipodi:namedview
     pagecolor="#ffffff"
     bordercolor="#666666"
     borderopacity="1"
     objecttolerance="10"
     gridtolerance="10"
     guidetolerance="10"
     inkscape:pageopacity="0"
     inkscape:pageshadow="2"
     inkscape:window-width="1611"
     inkscape:window-height="883"
     id="namedview20538"
     showgrid="false"
     inkscape:zoom="0.3964348"
     inkscape:cx="232.06843"
     inkscape:cy="412.42595"
     inkscape:window-x="0"
     inkscape:window-y="44"
     inkscape:window-maximized="0"
     inkscape:current-layer="g4215"
     inkscape:showpageshadow="2"
     inkscape:pagecheckerboard="0"
     inkscape:deskcolor="#d1d1d1" />
  <g
     inkscape:groupmode="layer"
     id="layer4"
     inkscape:label="Corona"
     style="display:inline"
     transform="translate(-47.096,-260.28134)">
    <path
       inkscape:connector-curvature="0"
       id="path20512-7"
       style="fill:#93973a;fill-opacity:1;fill-rule:evenodd"
       d="m 569.5654,260.28134 c 2.2103,0 4.4205,0 6.6307,0 5.2048,0 10.4095,0 15.6855,0 1.7825,0 3.6362,0 5.4899,0 4.3492,0.2139 8.6984,0.4277 13.0475,0.6416 -1.1408,25.9524 -2.2815,51.9047 -3.4223,77.9284 8.627,0.4278 8.627,0.4278 32.6544,2.2102 3.0658,-25.5958 6.2029,-51.1204 9.34,-76.645 0.0713,-0.1426 0.2138,-0.2139 0.3564,-0.2852 15.4716,2.0677 30.5867,4.4205 46.4148,7.415 0.0713,0.2139 0.1426,0.4991 0.2852,0.7843 -5.3473,25.0255 -10.6946,50.0509 -16.042,75.1477 9.4826,1.3547 20.2486,4.6344 30.2303,7.2011 0.1426,-0.0713 0.2852,-0.1426 0.4278,-0.2139 7.2723,-24.7403 14.5447,-49.4806 21.817,-74.2209 15.329,4.1353 30.8006,10.1243 46.7,14.9012 -4.6343,12.1919 -4.6343,12.1919 -53.6158,135.0378 -0.0713,0 -14.7587,-3.5649 -15.329,-4.1352 -23.7422,-5.3474 -32.5118,-6.8446 -32.797,-7.1298 -16.1132,-2.5667 -27.5209,-3.9927 -27.8061,-4.2779 -18.8226,-1.7824 -36.7896,-3.0658 -55.1131,-3.7787 -5.276,0 -10.4807,0 -15.6855,0 -22.7439,1.1407 -44.561,2.7806 -66.8772,5.4899 -9.4826,1.6398 -18.8939,3.351 -28.3052,5.0621 -11.8354,2.7806 -24.2412,5.7751 -35.6488,8.7696 -0.2852,-0.1426 -0.2852,-0.1426 -54.4714,-137.1054 14.9725,-5.276 30.3015,-10.4095 46.1296,-14.2595 0.3565,0 0.7129,0.0713 1.0694,0.1426 7.415,25.3819 14.8299,50.8352 22.3162,76.2885 9.1974,-0.9982 20.3911,-5.1335 30.4441,-7.2724 -0.8556,-5.1334 -0.8556,-5.1334 -16.4698,-77.358 0.5704,-0.3565 1.4973,-0.4278 1.7825,-0.713 14.9012,-2.4954 30.0163,-4.7056 45.6305,-6.488 3.0658,26.0236 6.2029,52.0473 9.34,78.0709 6.702,-0.713 6.702,-0.713 32.4404,-2.638 0.0713,-0.5704 0.1426,-1.1408 0.2852,-1.7111 -1.212,-25.5246 -2.3528,-51.0492 -3.4935,-76.5025 2.1389,-0.1425 4.3491,-0.2851 6.5593,-0.3564 z" />
  </g>
  <g
     inkscape:groupmode="layer"
     id="layer1"
     inkscape:label="Ramos"
     style="display:inline"
     transform="translate(-47.096,-260.28134)">
    <g
       id="g21790"
       transform="translate(-1171.2308,375.75847)">
      <path
         id="path20510-2-7"
         d="m 1959.6803,-32.70003 c 1.8538,16.3271 4.7768,30.9443698 9.9102,47.41407 2.0676,5.5612 4.2068,11.19367 6.3457,16.82617 7.7714,17.1114 16.4714,33.15327 27.3086,49.48047 11.3363,15.6142 23.669,29.8734 38.5703,43.5625 -0.2139,0.1426 -0.3555,0.28512 -0.4981,0.42773 12.7623,9.6252 26.0228,19.74876 39.0703,30.44336 9.6965,8.6984 19.3935,17.61219 29.2325,27.30859 15.0439,15.7568 29.3031,32.43925 42.9922,50.40625 14.0457,19.8208 26.7369,40.28436 38.2871,62.52926 7.0585,14.616 13.76,29.8018 19.8203,45.7012 10.7659,30.8006 18.2534,62.0283 22.6738,95.1817 0.6417,6.702 1.2821,13.4044 1.9238,20.1777 1.212,28.8756 0.5004,56.3246 -2.7793,85.5566 -2.2102,14.1883 -2.2117,14.1892 -4.1367,24.8125 -3.7075,17.7531 -8.4113,35.078 -14.1152,52.9024 -3.7074,10.4095 -7.5581,20.4635 -11.6934,30.873 -6.8446,15.329 -14.4023,30.3722 -22.6015,45.416 -10.6234,17.7531 -22.2456,35.0791 -34.7227,51.834 -12.691,15.4716 -25.5238,30.1584 -39.3555,44.5606 -18.3948,17.3253 -36.7191,33.1525 -57.039,48.125 -23.956,16.755 -48.0535,30.8724 -74.0059,43.9199 -25.2394,10.9085 -50.9069,22.5305 -77.4297,28.9473 -0.2851,0.2852 -4.4198,1.2831 -5.2754,1.7109 -13.9743,3.4936 -29.6601,6.8438 -29.9453,7.1289 -2.638,0.2852 -14.2596,2.1405 -14.9726,2.8535 -19.7495,2.8519 -19.7499,2.8504 -37.0039,4.918 -14.7115,1.177 -29.1105,1.858 -43.2774,2.1855 v 9.293 h 12.9043 c 2.9232,-0.4278 2.9241,-0.4276 25.2402,-1.8535 18.7512,-1.8538 37.859,-4.4918 56.9668,-7.4863 5.7038,-1.1407 11.4076,-2.2811 17.1114,-3.4219 16.5411,-3.6361 16.5409,-3.6367 16.8261,-3.9219 2.7806,-0.4278 15.4716,-3.3504 16.3985,-4.2773 23.0291,-6.0603 45.5588,-14.4726 68.1601,-23.3848 33.0822,-14.5448 64.5959,-31.229 95.2539,-51.1211 10.3382,-7.0584 20.8895,-14.7589 31.1563,-22.3164 15.4716,-12.3345 30.2316,-25.2386 44.7051,-38.7852 16.1133,-16.1133 31.5852,-33.1541 46.0586,-50.8359 11.4789,-15.1151 22.2439,-30.3018 32.582,-46.0586 17.1828,-28.3052 31.4419,-57.3235 43.2773,-87.7676 6.4881,-18.3235 12.0492,-36.7888 16.8262,-55.041 4.7769,-22.3161 4.7773,-22.3154 5.0625,-22.5293 v -0.5703 c -1.7824,-0.1426 -3.494,-0.2864 -5.2051,-0.3574 h -2.4238 c 3.7074,-33.5812 5.5607,-66.8065 4.8477,-99.8887 -0.9982,-18.5374 -0.998,-18.5375 -1.9961,-31.9414 -1.426,-0.071 -2.8514,-0.1419 -4.2774,-0.2129 -3.6362,-0.071 -7.2007,-0.072 -10.7656,-0.072 l 2.7813,-23.7402 c 1.6398,-22.2449 1.2823,-43.635 -0.3575,-65.3808 -1.2121,-11.4076 -2.2818,-22.8876 -6.0605,-32.8692 -1.1408,-0.1426 -2.2812,-0.2141 -3.4219,-0.2851 0,0.2139 -34.4375,0.2139 -34.4375,0 -1.7824,-11.05127 -3.8492,-22.10132 -6.1308,-32.29692 -6.7733,-26.5227 -16.0417,-49.90812 -27.3067,-74.07812 -2.8519,-5.276 -5.6335,-10.48085 -8.4141,-15.68555 -2.7807,-0.2139 -2.7804,-0.21484 -25.7382,-0.21484 -8.627,-18.1809 -17.8249,-34.79199 -28.5196,-50.83399 -11.5502,-16.1846 -23.7416,-30.4456 -36.6464,-44.5625 -0.8556,-0.1426 -1.7118,-0.21416 -2.4961,-0.28516 0,0.2139 -37.2872,0.2139 -37.2872,0 -4.9195,-5.91769 -4.9204,-5.91725 -16.8984,-19.53515 -13.9744,-14.1169 -28.3058,-26.7359702 -43.3496,-38.0722702 -13.6179,-9.5538998 -26.7365,-19.3225998 -41.709,-24.8124998 z"
         style="display:inline;fill:#22a447;fill-opacity:1;fill-rule:evenodd"
         inkscape:connector-curvature="0" />
      <path
         inkscape:connector-curvature="0"
         id="path20510-2-6-2"
         d="m 1560.4147,-35.69417 c -39.1424,22.0309 -73.5796,48.33951 -101.7422,83.84571 h -37.5039 c -0.7842,0.0713 -1.496,0.21482 -2.209,0.35742 -5.4186,5.9177 -10.8371,11.83522 -16.2558,17.82422 -6.2029,7.415 -12.264,15.32808 -18.1817,23.24218 -11.8354,17.4679 -21.745,35.22129 -30.8711,54.40039 h -22.8164 c -0.9982,0 -1.9951,0.0716 -2.9219,0.14258 -7.8428,14.5447 -15.0451,29.30283 -21.3906,44.70313 -4.2779,11.479 -8.1988,23.10107 -11.7637,35.29297 -3.2084,13.7604 -6.1315,27.6634 -8.6269,41.99414 -12.9762,0 -25.9515,0.072 -38.9277,0.1426 -4.4205,21.9597 -6.1328,43.9201 -6.7032,66.5215 0,2.4241 0.072,4.8473 0.1426,7.2714 0.2852,15.9707 2.1394,31.9415 3.9219,48.4825 -4.9909,0 -9.9819,0 -14.9727,0.072 -1.2121,15.8994 -1.8534,31.6552 -2.2812,48.125 v 8.1289 c 0.4278,18.1809 0.4285,18.1804 1.3554,36.5039 0.9982,12.691 2.4227,25.9526 3.7774,39.1426 -9.1261,-0.071 -9.1263,-0.071 -14.1172,0.1426 v 1.9961 c 0.071,0.1426 0.2148,0.2851 0.3574,0.4277 5.6325,28.7329 13.6883,56.4683 24.2403,84.4883 10.9799,26.6653 23.5997,52.2615 38.8574,77.8574 9.7677,15.2577 20.2496,30.3722 31.7285,45.7012 15.6855,19.393 32.3689,38.0729 50.7637,56.1113 l 14.5449,13.4746 c 24.3125,21.1041 49.6236,39.7841 77.5723,57.3946 15.4716,9.1261 15.4708,9.1259 30.4433,17.3965 24.8116,12.7623 51.1198,24.5261 78.3555,34.2226 31.7988,10.1955 64.9519,20.0355 98.8183,24.6699 0.2852,0.2852 0.2858,0.2847 35.5782,4.7051 29.7311,2.1389 29.7308,2.1387 34.3652,2.2813 0.2852,0.1426 0.6415,0.2851 0.998,0.4277 h 22.7442 v -8.9395 c -8.1292,-0.072 -22.6471,-0.7471 -23.0293,-0.7558 -20.7476,-1.4259 -41.1382,-3.8493 -61.1016,-6.7012 -0.2852,-0.2852 -7.8417,-1.4277 -8.1269,-1.7129 -8.2705,-1.0695 -15.6856,-3.2791 -23.1719,-4.8476 -38.9285,-9.7678 -73.8659,-23.5986 -109.4434,-40.6387 -14.9725,-8.1279 -14.9709,-8.1278 -29.6582,-16.6836 -19.5356,-12.2632 -37.3602,-25.0969 -54.9707,-38.7148 -22.5301,-18.9652 -42.1383,-38.5013 -60.8183,-59.8907 -8.4131,-10.3381 -16.2559,-20.3903 -23.5996,-30.4433 -10.6947,-16.1132 -20.2479,-31.3711 -29.3028,-47.3418 -10.2668,-20.0347 -19.1084,-40.2837 -26.5234,-60.6035 -3.351,-10.4095 -6.7018,-20.747 -9.4824,-30.7286 -4.6343,-18.9652 -8.2693,-37.7174 -10.836,-56.3261 -1.8538,-18.2522 -3.0663,-35.7195 -3.2089,-53.4727 0.3565,-23.4569 2.5669,-45.844 5.9179,-68.7305 2.0676,-10.766 2.0668,-10.7662 6.416,-30.6582 3.9213,-14.9012 8.4848,-29.4465 13.4043,-43.6347 5.9177,-15.4003 12.2629,-29.7316 19.1075,-44.3477 6.3455,-11.9067 12.9064,-23.4566 19.5371,-34.9355 5.3473,-8.34196 5.3462,-8.34179 16.8964,-25.16799 11.479,-15.4003 23.6704,-30.01674 36.3614,-44.49024 l 19.0371,-19.25 c 11.479,-10.6947 23.7426,-21.03197 36.0058,-31.01367 18.2522,-13.3327 33.2962,-26.7371 47.9122,-44.0625 8.7696,-11.0511 16.8976,-22.88619 24.1699,-34.65039 6.8446,-12.6196 13.1898,-25.31091 18.5371,-38.28711 5.989,-16.3272002 10.196,-32.2265302 12.834,-49.05273 -0.072,-3.8501 -0.1426,-7.62951 -0.1426,-11.40821 z"
         style="display:inline;fill:#295c30;fill-opacity:1;fill-rule:evenodd" />
    </g>
  </g>
  <g
     style="display:inline"
     inkscape:label="LadoAro"
     id="g4248"
     inkscape:groupmode="layer"
     transform="translate(-47.096,-260.28134)">
    <path
       d="m 426.0431,794.7999 c 0,-3.0658 0,-6.0603 0,-9.0548 53.4733,-0.0713 106.9465,-0.1426 160.4198,-0.2138 0,-116.144 0,-232.2879 0,-348.4318 3.0658,0 6.1316,0 9.2687,0 0.0713,43.9907 0.1426,87.9813 0.2139,132.0433 12.1206,1.426 24.0273,3.5649 36.5757,6.0603 15.6855,3.9214 30.1589,8.4844 45.987,14.4734 5.4899,2.4242 11.0511,4.8483 16.6124,7.3437 18.8225,9.4113 36.0053,20.0346 53.7584,32.6543 10.5521,8.4845 21.0328,17.6106 31.371,27.307 0.1426,0 0.2852,0 0.4278,0 37.9303,-34.7932 75.8607,-69.5865 113.8624,-104.3085 0.2139,-0.0713 0.4278,-0.0713 0.6417,-0.0713 5.8464,6.4168 5.8464,6.4168 5.989,6.9159 -245.2641,224.659 -245.2641,224.659 -246.2622,225.8711 -0.4278,0.1426 -0.4278,0.1426 70.5847,0.3564 0,-0.4277 0,-0.4277 -0.2852,-0.4277 -7.0585,-11.4077 -14.4735,-21.5319 -22.6014,-31.1571 0,-0.2852 0,-0.4991 0,-0.713 13.1188,-12.0493 26.2376,-24.0986 39.4276,-36.1479 0.1426,-0.0713 0.3565,-0.1426 0.5704,-0.1426 8.6983,11.6215 16.8976,23.6708 24.0986,37.36 4.2779,10.0529 8.1993,20.1059 11.978,31.0145 3.1371,0 6.3455,0.0712 9.5539,0.1425 -6.2742,-23.7421 -17.3253,-45.3453 -31.0858,-64.8095 -1.7111,-2.2103 -7.4862,-9.0548 -7.4862,-10.4808 14.4734,-13.2614 28.9468,-26.4514 43.4916,-39.6415 28.5903,33.2247 50.7639,71.2977 61.1021,114.7893 59.9613,0.0712 119.9227,0.1425 179.9553,0.2138 0,2.9945 0,5.989 0,9.0548 -202.7706,0 -405.4699,0 -608.1692,0 z M 640.15,785.6738 c -14.7586,-0.0713 -29.5172,-0.1425 -44.2045,-0.1425 0,-33.1535 0,-66.3069 0,-99.4603 9.9104,3.1371 20.1772,6.9872 30.4441,11.265 13.2614,6.2742 25.881,13.8318 38.6433,22.6014 7.0585,5.276 14.4022,11.265 15.0438,11.5502 0.4991,1.5686 6.7733,6.4881 8.9836,8.4844 0,0.2852 0,0.5704 0,0.8556 -16.3272,14.9012 -32.6544,29.8737 -48.9103,44.8462 z M 595.9455,639.2284 c 0,-3.1371 0,-6.2029 0,-9.2687 16.9688,1.9964 16.9688,1.9964 22.3162,2.8519 0.6416,0.6417 10.4807,2.4954 12.8335,2.8519 0.2852,0.2852 7.8428,2.139 8.128,2.4242 37.36,10.6233 69.3013,31.157 97.4639,58.6066 0,0.9982 -6.1316,6.4168 -6.8446,6.2029 -6.6307,-6.4167 -6.6307,-6.4167 -13.19,-12.2632 -19.4643,-16.0419 -38.4295,-27.4496 -60.9596,-37.0035 -19.9633,-7.5575 -39.2137,-12.4057 -59.7474,-14.4021 z"
       style="fill:#284928;fill-opacity:1;fill-rule:evenodd"
       id="path4258"
       inkscape:connector-curvature="0" />
    <path
       d="m 750.6614,858.9679 c 10.3382,0.0713 20.7477,0.2139 31.1571,0.3564 -6.2029,27.4497 -18.6087,51.1205 -38.9998,70.9412 3.4223,-11.978 3.4223,-11.978 3.7075,-12.2632 2.2102,-10.7659 3.9214,-21.2467 4.9195,-31.5135 0,-9.5539 -0.3565,-18.3948 -0.7843,-27.5209 z"
       style="fill:#284928;fill-opacity:1;fill-rule:evenodd"
       id="path4260"
       inkscape:connector-curvature="0" />
    <path
       d="m 578.6201,638.658 c 0,14.3309 0,28.733 0,43.1351 -13.2613,-2.4954 -25.2393,-3.4936 -38.0729,-4.2778 -1.8538,0 -3.6362,0 -5.4186,0 -14.117,0.4991 -27.3784,1.8537 -40.6397,4.4917 -0.2852,0.2852 -7.7715,1.9964 -18.5374,5.3473 -8.2705,2.9233 -15.6855,6.2742 -23.1005,10.053 0,-0.2139 0,-0.4278 0,-0.5704 9.4113,-11.6215 19.1791,-21.1754 31.371,-30.0163 3.1371,-2.0676 6.2742,-4.064 9.4826,-6.0603 11.8354,-6.5594 23.243,-11.265 36.2905,-15.4716 3.7788,-0.9981 7.6289,-1.9963 11.479,-2.9232 12.2632,-2.0676 24.3125,-3.4223 37.146,-3.7075 z"
       style="fill:#284928;fill-opacity:1;fill-rule:evenodd"
       id="path4262"
       inkscape:connector-curvature="0" />
    <path
       d="m 306.6908,822.606 c 0,-1.925 0,-3.85 0,-5.7038 0.3565,-10.4094 1.212,-20.5337 2.5667,-30.8719 0.7843,-4.0639 1.5686,-8.1279 2.3528,-12.1206 2.7806,-10.8372 5.8464,-20.3198 9.34,-30.2302 3.5649,-8.3418 3.5649,-8.3418 7.4863,-16.3985 7.914,-15.1151 17.4679,-28.4477 28.4478,-41.1387 0.0713,0.1426 0.1425,0.2852 0.2851,0.4278 -4.3491,10.2668 -7.7001,20.3198 -10.6946,31.371 -2.5667,11.4076 -4.4918,22.8152 -5.8464,34.8645 -0.2852,4.9909 -0.5704,9.9817 -0.7843,15.0438 0,1.7825 0,3.5649 0,5.4186 0.4278,12.192 1.5686,24.0987 3.2797,37.0035 2.9232,15.1864 6.6307,30.3016 12.1206,45.6306 4.8482,12.2632 10.5521,25.0254 17.0402,37.5025 11.5502,20.0347 24.5977,38.2869 40.3544,56.3252 4.4918,4.6344 8.9835,9.2687 13.5466,13.903 22.6014,20.819 45.7731,38.2156 73.5792,53.3307 12.0493,5.7751 24.669,11.4789 37.5026,16.8263 11.1224,3.7787 22.9578,7.5575 35.0071,10.552 19.1078,4.064 38.0017,6.702 58.3216,8.128 5.7038,0 11.4076,0.071 17.1114,0.1426 11.1937,-0.4991 22.9579,-1.5686 34.7933,-2.9946 8.4844,-1.7111 17.0401,-3.4222 25.5958,-5.1334 0.2852,-0.2852 10.9086,-3.2797 22.2449,-7.0585 8.627,-3.3509 17.3253,-7.1297 26.095,-11.4076 13.8317,-7.6288 13.8317,-7.6288 13.9743,-7.4862 -8.4131,9.6251 -17.7531,18.2522 -27.7348,26.3801 -14.9012,11.265 -30.3015,20.1772 -47.2704,27.6635 -10.7659,4.2779 -21.5319,7.914 -32.2265,10.9798 -17.254,3.7788 -19.6782,4.1353 -19.9634,4.4205 -13.1187,1.5685 -26.2375,2.9232 -38.9285,3.5649 -3.2797,0 -6.5594,0 -9.7678,0 -33.8664,-0.9982 -66.1642,-7.3437 -97.1787,-18.5374 -5.9177,-2.4241 -11.7641,-4.8483 -17.6105,-7.2724 -30.8719,-14.5447 -57.1095,-31.5136 -82.2776,-53.6158 -4.6343,-4.4918 -9.1974,-8.9122 -13.7604,-13.3327 -13.1901,-14.4021 -24.9542,-28.6617 -35.435,-44.2759 -14.8299,-23.6708 -25.3106,-47.199 -33.0821,-73.0088 -2.9232,-12.4771 -5.276,-24.7403 -7.1298,-36.647 -1.0694,-13.4039 -1.0694,-13.4039 -1.3546,-22.2449 z"
       style="fill:#284928;fill-opacity:1;fill-rule:evenodd"
       id="path4264"
       inkscape:connector-curvature="0" />
    <path
       inkscape:connector-curvature="0"
       id="path4304"
       style="display:inline;fill:#284928;fill-opacity:1;fill-rule:evenodd"
       d="m 747.5956,841.6425 v -0.8555 h -0.2851 c -2.5668,-13.0475 -7.5576,-25.5959 -12.3345,-36.9322 15.828,-0.1426 31.6561,-0.2139 47.5555,-0.2852 0.9269,6.7019 1.9251,14.616 2.2102,22.0309 v 5.9178 c -0.1426,3.2796 -0.2851,6.5593 -0.3564,9.839 -4.90292,0 -8.74752,0.1486 -14.14234,0.1486 -5.1508,0 -13.90172,0.13651 -22.64736,0.13651 z"
       sodipodi:nodetypes="ccccccccccc" />
    <path
       inkscape:connector-curvature="0"
       id="path4296"
       style="display:inline;fill:#284928;fill-opacity:1;fill-rule:evenodd"
       d="m 725.4934,785.7451 c 0,-0.4277 0,-0.4277 -0.2852,-0.4277 -7.0585,-11.4077 -14.4735,-21.5319 -22.6014,-31.1571 v -0.713 c 13.1188,-12.0493 26.2376,-24.0986 39.4276,-36.1479 0.1426,-0.0713 0.3565,-0.1426 0.5704,-0.1426 8.6983,11.6215 16.8976,23.6708 24.0986,37.36 4.2779,10.0529 8.1993,20.1059 11.978,31.0145 -20.09405,0 -42.61433,0.4503 -53.188,0.2138 z"
       sodipodi:nodetypes="ccccccccc" />
  </g>
  <g
     style="display:inline"
     inkscape:label="TapaAro"
     id="g4216"
     inkscape:groupmode="layer"
     transform="translate(-47.096,-260.28134)">
    <path
       d="m 578.6201,568.0733 c 0,20.3199 0,40.711 0,61.1021 -26.8792,0.4278 -50.1222,5.3474 -74.4347,15.6142 -8.6984,4.2779 -16.5411,8.8409 -24.5264,13.8318 -9.34,6.7733 -17.5393,13.903 -25.6672,22.3162 -6.2742,7.4149 -6.2742,7.4149 -11.6215,14.4734 -10.8707,17.2961 -16.6553,29.5085 -22.031,48.4824 -1.9963,9.6252 -1.9963,9.6252 -3.0658,16.3985 -0.4991,5.3473 -0.9269,10.6946 -1.3547,16.1132 0,3.1371 0,6.2742 0,9.4826 0.2852,4.1353 0.5704,8.3419 0.8556,12.5484 2.2102,15.6142 5.2047,30.3015 11.0511,45.9157 2.0677,4.9196 4.2066,9.8391 6.3455,14.7587 7.2724,14.1169 15.6855,27.0218 25.6672,40.2831 3.9214,4.4205 7.8428,8.841 11.7641,13.2614 13.404,12.9762 26.9505,24.3838 43.2064,35.0785 18.7513,10.9085 38.6434,21.2467 60.6743,26.594 0.2852,0.2852 0.2852,0.2852 14.117,3.4223 11.7641,1.925 23.6708,3.6362 36.2905,4.064 0,0.0713 0,0.1426 0,0.2851 3.2797,0 6.6307,0 9.9817,0 0,-0.1425 0,-0.2138 0,-0.2851 4.9195,-0.2852 9.8391,-0.5704 14.7586,-0.8556 9.7678,-1.0695 19.8208,-3.1371 29.945,-5.5612 22.6441,-6.9476 38.5448,-15.0593 57.466,-28.5191 12.3345,-10.4808 23.1004,-21.6745 32.2978,-35.1498 4.9908,-8.3418 4.9908,-8.3418 9.1974,-16.2558 5.2047,-12.1206 9.34,-24.1699 11.978,-36.5044 22.8153,0 45.6305,0 68.4458,0 -2.8519,28.0912 -10.6234,53.4732 -23.956,78.7839 -1.7112,2.9232 -3.4223,5.8464 -5.1335,8.7696 -12.8335,19.8208 -28.3051,35.934 -46.5573,50.8352 -11.0512,7.9854 -21.8884,14.9013 -33.7951,21.1755 -5.3474,2.4241 -10.6947,4.9195 -16.042,7.4149 -9.4113,3.4223 -9.4113,3.4223 -22.8153,7.8428 -14.4734,3.5648 -28.7329,6.4168 -43.0638,8.1279 -11.978,0.8556 -23.0291,1.0695 -34.4368,1.2834 -23.0291,-1.1408 -44.4897,-4.4205 -66.2355,-9.6252 -6.9159,-2.0677 -13.8318,-4.1353 -20.6763,-6.2029 -19.4643,-7.0585 -37.7165,-15.6142 -55.327,-25.4533 -9.1261,-5.5612 -9.1261,-5.5612 -18.8939,-11.978 -17.2541,-12.6197 -33.1534,-25.6672 -47.7695,-40.4258 -4.2065,-4.6343 -8.4131,-9.2687 -12.6197,-13.903 -12.5484,-15.8994 -23.3856,-31.4423 -33.0821,-48.4825 -2.5667,-5.0621 -5.1334,-10.1242 -7.6288,-15.1864 -7.1298,-16.6123 -12.6197,-32.583 -16.8263,-49.4093 -1.8537,-9.2687 -1.8537,-9.2687 -3.7788,-20.8902 -1.7111,-15.5429 -2.1389,-30.3728 -1.5685,-45.2027 0.6417,-5.7751 1.2833,-11.5502 1.925,-17.3253 3.5649,-19.4643 8.5557,-36.148 16.3985,-53.9724 3.6362,-7.4149 3.6362,-7.4149 8.3418,-15.8281 9.9104,-16.1845 20.3912,-28.9468 33.6525,-42.2082 12.1206,-10.9798 24.669,-20.3911 38.8573,-28.8755 7.8427,-4.2779 15.6855,-8.128 24.0273,-11.9068 9.6965,-3.7787 9.6965,-3.7787 20.8902,-7.5575 12.7623,-3.7075 25.8098,-6.2029 39.285,-8.627 10.2669,-1.0695 20.1773,-1.7112 31.0145,-2.2816 4.777,0.0713 9.6252,0.1426 14.4734,0.2139 z"
       style="fill:#445248;fill-opacity:1;fill-rule:evenodd"
       id="path4224"
       inkscape:connector-curvature="0" />
    <path
       d="m 793.654,841.4999 c 0.9981,-13.0474 -0.0713,-25.5245 -1.426,-37.9303 h 65.5939 c 1.6398,12.5484 2.7806,24.7403 3.0658,37.9303 -23.08946,0 -41.93552,0 -67.2337,0 z"
       style="fill:#445248;fill-opacity:1;fill-rule:evenodd"
       id="path4234"
       inkscape:connector-curvature="0"
       sodipodi:nodetypes="ccccc" />
    <path
       inkscape:connector-curvature="0"
       id="path4322"
       style="display:inline;fill:#445248;fill-opacity:1;fill-rule:evenodd"
       d="m 788.2353,785.6738 c -6.2742,-23.7421 -17.3253,-45.3453 -31.0858,-64.8095 -1.7111,-2.2103 -7.4862,-9.0548 -7.4862,-10.4808 14.4734,-13.2614 28.9468,-26.4514 43.4916,-39.6415 28.5903,33.2247 50.7639,71.2977 61.1021,114.7893 -23.58268,0 -41.72149,0.1425 -66.0217,0.1425 z"
       sodipodi:nodetypes="cccccc" />
    <path
       inkscape:connector-curvature="0"
       id="path4339"
       style="display:inline;fill:#445248;fill-opacity:1;fill-rule:evenodd"
       d="m 595.82714,639.71034 v -39.85143 l -0.0955,-19.62031 c 0.0713,43.9907 0.1426,-55.1578 0.2139,-11.0958 12.1206,1.426 24.0273,3.5649 36.5757,6.0603 15.6855,3.9214 30.1589,8.4844 45.987,14.4734 5.4899,2.4242 11.0511,4.8483 16.6124,7.3437 18.8225,9.4113 36.0053,20.0346 53.7584,32.6543 10.5521,8.4845 21.0328,17.6106 31.371,27.307 h 0.4278 c -12.59355,12.32787 -17.63643,15.35813 -27.55108,24.71713 -21.93474,20.70546 -5.74376,6.76229 -23.24076,22.02075 -18.29844,-21.08576 -70.98315,-59.7443 -134.05886,-64.00904 z m 0.11836,-0.48194 v -9.2687 c 16.9688,1.9964 16.9688,1.9964 22.3162,2.8519 0.6416,0.6417 10.4807,2.4954 12.8335,2.8519 0.2852,0.2852 7.8428,2.139 8.128,2.4242 37.36,10.6233 69.3013,31.157 97.4639,58.6066 0,0.9982 -6.1316,6.4168 -6.8446,6.2029 -6.6307,-6.4167 -6.6307,-6.4167 -13.19,-12.2632 -19.4643,-16.0419 -38.4295,-27.4496 -60.9596,-37.0035 -19.9633,-7.5575 -39.2137,-12.4057 -59.7474,-14.4021 z"
       sodipodi:nodetypes="ccccccccccscccccccccccc" />
  </g>
  <g
     style="display:inline"
     inkscape:label="Lineas"
     id="g4215"
     inkscape:groupmode="layer"
     transform="translate(-47.096,-260.28134)">
    <g
       id="g4217">
      <path
         inkscape:connector-curvature="0"
         id="path4235"
         style="fill:#8c4146;fill-opacity:1;fill-rule:evenodd"
         d="m 254.2157,1152.2152 c -1.426,-1.5685 -6.1316,-6.2742 -6.1316,-7.2011 46.7,-42.7073 93.4,-85.4146 140.0999,-128.0506 0.2139,-0.071 0.4278,-0.1426 0.713,-0.2139 2.2102,2.0677 4.4918,4.1353 6.7733,6.2742 -47.1991,43.0638 -94.3268,86.1276 -141.4546,129.1914 z" />
      <path
         inkscape:connector-curvature="0"
         id="path4237"
         style="fill:#8c4146;fill-opacity:1;fill-rule:evenodd"
         d="m 299.3471,850.9825 c -53.901,-0.0713 -107.8021,-0.0713 -161.6318,-0.0713 0,-3.0658 0,-6.0603 0,-9.0548 53.5445,0 107.0891,0 160.705,0 0.2851,2.9945 0.5703,6.0603 0.9268,9.1261 z" />
      <path
         inkscape:connector-curvature="0"
         id="path4239"
         style="fill:#8c4146;fill-opacity:1;fill-rule:evenodd"
         d="m 568.8524,850.9825 c 0.1426,-0.2139 0.1426,-0.2139 -42.7786,-0.3565 -19.0365,0 -38.073,0 -57.0382,0 -9.9104,0 -19.8207,0 -29.7311,0 0,-3.1371 0,-6.2029 0,-9.2687 7.3436,0 14.6873,0 22.1023,0 28.8042,0 57.6798,0 86.5553,0 10.1956,0.0713 20.3912,0.1426 30.658,0.2852 1.8538,-0.5704 5.9178,-4.9908 7.6289,-6.5594 0.0713,-10.552 0.1426,-21.0328 0.2139,-31.5135 3.0658,0 6.1316,0 9.2687,0 0.0713,22.6726 0.0713,22.6726 0.2139,22.6013 8.2705,-7.5575 16.6123,-15.1151 24.9542,-22.6726 4.563,0.0713 9.1261,0.1426 13.7604,0.2139 -45.0601,41.2813 -90.1202,82.5627 -135.1804,123.844 -1.7824,0 -6.3455,-6.4881 -6.4881,-7.0584 25.2394,-23.1718 50.5501,-46.3435 75.8608,-69.5153 z" />
      <path
         inkscape:connector-curvature="0"
         id="path4241"
         style="fill:#8c4146;fill-opacity:1;fill-rule:evenodd"
         d="m 595.7316,851.6955 c 0,39.0711 0,78.1422 0,117.2847 -3.1371,0 -6.2029,0 -9.2687,0 0,-36.4331 0.0713,-72.8663 0.1426,-109.2281 2.9945,-2.7093 6.0603,-5.4186 9.1261,-8.0566 z" />
      <path
         inkscape:connector-curvature="0"
         id="path4243"
         style="fill:#8c4146;fill-opacity:1;fill-rule:evenodd"
         d="m 595.7316,1100.8809 c 0,62.3854 0,124.8422 0,187.299 -3.1371,0 -6.2029,0 -9.2687,0 0,-62.5994 0,-125.1274 0,-187.6555 3.0658,0.071 6.1316,0.2139 9.2687,0.3565 z" />
      <path
         inkscape:connector-curvature="0"
         id="path4245"
         style="fill:#8c4146;fill-opacity:1;fill-rule:evenodd"
         d="m 298.6341,794.9425 c -53.3306,-0.0713 -106.6613,-0.1426 -159.9207,-0.1426 0,-3.0658 0,-6.0603 0,-9.0548 53.6872,0 107.3744,0 161.1328,0 -0.4278,3.0658 -0.8556,6.1316 -1.2121,9.1974 z" />
    </g>
    <g
       style="display:inline;fill:#8c4146;fill-opacity:1"
       id="g21978">
      <path
         inkscape:connector-curvature="0"
         id="path21994"
         style="fill:#8c4146;fill-opacity:1;fill-rule:evenodd"
         d="m 739.4677,850.9112 c -17.254,-0.1426 -34.5081,-0.2139 -51.7621,-0.2852 h -62.742 c -9.4113,-0.0713 -18.7513,-0.1426 -28.0912,-0.2139 3.2083,-2.9232 6.488,-5.8464 9.7677,-8.7696 h 41.1388 85.5572 c 107.87969,0 55.35443,-0.55318 172.7543,0 l 70.5847,0.2139 c 18.7513,-0.0713 37.5026,-0.1426 56.3252,-0.1426 0.071,0 0.1426,0.0713 0.2139,0.1426 v 9.0548 h -37.5026 -55.1844 -55.1131 -60.817 z"
         sodipodi:nodetypes="cccccccccsccccccc" />
    </g>
    <g
       id="g4315"
       style="display:inline;fill:#8c3c4b;fill-opacity:1">
      <path
         inkscape:connector-curvature="0"
         id="path4323"
         style="fill:#8c3c4b;fill-opacity:1;fill-rule:evenodd"
         d="m 426.0431,794.7999 v -9.0548 c 53.4733,-0.0713 106.9465,-0.1426 160.4198,-0.2138 V 437.0995 h 9.2687 c 0.0713,43.9907 0.1426,304.59952 0.2139,348.66152 35.89497,0 23.61286,-0.45641 44.38258,-0.45641 C 632.92879,792.08378 856.5385,587.395 894.5402,552.673 c 0.2139,-0.0713 0.4278,-0.0713 0.6417,-0.0713 5.8464,6.4168 5.8464,6.4168 5.989,6.9159 -245.2641,224.659 -245.2641,224.659 -246.2622,225.8711 -0.4278,0.1426 -0.4278,0.1426 70.5847,0.3564 0,-0.4277 0,-0.4277 -0.2852,-0.4277 68.12076,0 26.59182,0.2139 53.4732,0.2139 3.1371,0 6.3455,0.0712 9.5539,0.1425 32.64538,0 26.19712,-0.1425 66.0217,-0.1425 59.9613,0.0712 119.9227,0.1425 179.9553,0.2138 v 9.0548 z"
         sodipodi:nodetypes="ccccccccccccccccccc" />
    </g>
  </g>
</svg>
